<?xml version="1.0" encoding="UTF-8"?>
<svg version="1.1" xmlns="http://www.w3.org/2000/svg" width="65" height="71">
<path d="M0 0 C21.45 0 42.9 0 65 0 C65 23.43 65 46.86 65 71 C43.55 71 22.1 71 0 71 C0 47.57 0 24.14 0 0 Z " fill="#FB6B00" transform="translate(0,0)"/>
<path d="M0 0 C0 1.32 0 2.64 0 4 C7.59 4 15.18 4 23 4 C23 2.68 23 1.36 23 0 C25.375 0.1875 25.375 0.1875 28 1 C29.375 3.375 29.375 3.375 30 6 C29.67 6.99 29.34 7.98 29 9 C28.01 9 27.02 9 26 9 C26 9.66 26 10.32 26 11 C25.01 11 24.02 11 23 11 C23 9.35 23 7.7 23 6 C21.35 6 19.7 6 18 6 C17.67 7.32 17.34 8.64 17 10 C14.61435923 9.42415568 12.33317216 8.77772405 10 8 C9.67 10.64 9.34 13.28 9 16 C8.34 15.67 7.68 15.34 7 15 C7 14.34 7 13.68 7 13 C6.01 13 5.02 13 4 13 C2.3125 10.5 2.3125 10.5 1 8 C0.67 8.99 0.34 9.98 0 11 C-0.99 11 -1.98 11 -3 11 C-3 10.34 -3 9.68 -3 9 C-3.99 9 -4.98 9 -6 9 C-6.89674777 6.48910624 -7.13172674 5.35464891 -6.1875 2.8125 C-4.36135679 0.02522878 -3.33103737 0 0 0 Z " fill="#CE9747" transform="translate(20,16)"/>
<path d="M0 0 C2.0625 0.4375 2.0625 0.4375 4 1 C4 1.99 4 2.98 4 4 C6.97 4 9.94 4 13 4 C13.33 2.68 13.66 1.36 14 0 C15.32 0 16.64 0 18 0 C18.06058594 0.84304687 18.12117188 1.68609375 18.18359375 2.5546875 C18.30927734 4.19824219 18.30927734 4.19824219 18.4375 5.875 C18.51871094 6.96554688 18.59992187 8.05609375 18.68359375 9.1796875 C18.83001703 11.94728971 18.83001703 11.94728971 20 14 C18.02 14 16.04 14 14 14 C14 13.01 14 12.02 14 11 C14.99 11 15.98 11 17 11 C17 9.35 17 7.7 17 6 C16.01 6 15.02 6 14 6 C13.67 6.99 13.34 7.98 13 9 C10.03 9 7.06 9 4 9 C3.67 8.01 3.34 7.02 3 6 C2.01 6 1.02 6 0 6 C0 7.65 0 9.3 0 11 C0.99 11 1.98 11 3 11 C3 11.99 3 12.98 3 14 C1.02 14 -0.96 14 -3 14 C-2.67 13.34 -2.34 12.68 -2 12 C-1.68744353 9.14792222 -1.48962518 6.29503146 -1.28125 3.43359375 C-1 1 -1 1 0 0 Z " fill="#AE98AE" transform="translate(23,38)"/>
<path d="M0 0 C1.32 0 2.64 0 4 0 C2 5 2 5 1 7.1875 C-0.48250345 11.35704095 -1.2067333 15.65391117 -2 20 C-4.97 20 -7.94 20 -11 20 C-9.68 19.67 -8.36 19.34 -7 19 C-7.6558188 14.15909592 -7.6558188 14.15909592 -8.625 9.375 C-9.05360533 6.66049955 -8.68004494 4.64461921 -8 2 C-5.61435923 2.57584432 -3.33317216 3.22227595 -1 4 C-0.67 2.68 -0.34 1.36 0 0 Z " fill="#F7843B" transform="translate(38,22)"/>
<path d="M0 0 C1.32 0 2.64 0 4 0 C2.125 4.75 2.125 4.75 1 7 C0.01 7.33 -0.98 7.66 -2 8 C-2.33 8.99 -2.66 9.98 -3 11 C-4.98 11 -6.96 11 -9 11 C-8.67 8.03 -8.34 5.06 -8 2 C-4 3 -4 3 -1 4 C-0.67 2.68 -0.34 1.36 0 0 Z " fill="#F0B63B" transform="translate(38,22)"/>
<path d="M0 0 C0 1.65 0 3.3 0 5 C0.66 5.33 1.32 5.66 2 6 C1.34 6 0.68 6 0 6 C0 7.65 0 9.3 0 11 C-0.99 11 -1.98 11 -3 11 C-3 10.34 -3 9.68 -3 9 C-3.99 9 -4.98 9 -6 9 C-6.89674777 6.48910624 -7.13172674 5.35464891 -6.1875 2.8125 C-4.36135679 0.02522878 -3.33103737 0 0 0 Z " fill="#40344A" transform="translate(20,16)"/>
<path d="M0 0 C2.475 0.495 2.475 0.495 5 1 C6.375 3.375 6.375 3.375 7 6 C6.67 6.99 6.34 7.98 6 9 C5.01 9 4.02 9 3 9 C3 9.66 3 10.32 3 11 C2.01 11 1.02 11 0 11 C0 7.37 0 3.74 0 0 Z " fill="#5F434D" transform="translate(43,16)"/>
<path d="M0 0 C1.32 0 2.64 0 4 0 C4.06058594 0.84304687 4.12117188 1.68609375 4.18359375 2.5546875 C4.26738281 3.65039062 4.35117187 4.74609375 4.4375 5.875 C4.51871094 6.96554688 4.59992187 8.05609375 4.68359375 9.1796875 C4.83001703 11.94728971 4.83001703 11.94728971 6 14 C4.02 14 2.04 14 0 14 C0 13.01 0 12.02 0 11 C0.99 11 1.98 11 3 11 C3 9.35 3 7.7 3 6 C1.68 5.67 0.36 5.34 -1 5 C-0.67 3.35 -0.34 1.7 0 0 Z " fill="#A67B56" transform="translate(37,38)"/>
<path d="M0 0 C2.0625 0.4375 2.0625 0.4375 4 1 C3.67 2.65 3.34 4.3 3 6 C2.01 6 1.02 6 0 6 C0 7.65 0 9.3 0 11 C0.99 11 1.98 11 3 11 C3 11.99 3 12.98 3 14 C1.02 14 -0.96 14 -3 14 C-2.67 13.34 -2.34 12.68 -2 12 C-1.68744353 9.14792222 -1.48962518 6.29503146 -1.28125 3.43359375 C-1 1 -1 1 0 0 Z " fill="#A77C57" transform="translate(23,38)"/>
<path d="M0 0 C3 0 3 0 4.38671875 1.3125 C5.59114583 2.875 6.79557292 4.4375 8 6 C7.34 6 6.68 6 6 6 C6.33 7.98 6.66 9.96 7 12 C5.68 12 4.36 12 3 12 C2.01 8.04 1.02 4.08 0 0 Z " fill="#FD712C" transform="translate(24,29)"/>
<path d="M0 0 C4.29 0 8.58 0 13 0 C12.67 1.32 12.34 2.64 12 4 C10.39125 3.7215625 10.39125 3.7215625 8.75 3.4375 C5.59608454 3.0695432 3.90181508 2.95534657 1 4 C0.67 2.68 0.34 1.36 0 0 Z " fill="#FC7402" transform="translate(25,22)"/>
<path d="M0 0 C1.32 0 2.64 0 4 0 C2.125 4.75 2.125 4.75 1 7 C-0.32 7 -1.64 7 -3 7 C-3 6.01 -3 5.02 -3 4 C-2.34 4 -1.68 4 -1 4 C-0.67 2.68 -0.34 1.36 0 0 Z " fill="#F1B12D" transform="translate(38,22)"/>
<path d="M0 0 C1.32 0 2.64 0 4 0 C4 1.65 4 3.3 4 5 C2.35 5 0.7 5 -1 5 C-0.67 3.35 -0.34 1.7 0 0 Z " fill="#573E66" transform="translate(37,38)"/>
<path d="M0 0 C1.98 0.495 1.98 0.495 4 1 C4 2.32 4 3.64 4 5 C2.35 5 0.7 5 -1 5 C-0.67 3.35 -0.34 1.7 0 0 Z " fill="#543D68" transform="translate(23,38)"/>
<path d="M0 0 C0.99 0 1.98 0 3 0 C4.6875 2.5 4.6875 2.5 6 5 C5.34 5 4.68 5 4 5 C3.34 6.32 2.68 7.64 2 9 C1.34 6.03 0.68 3.06 0 0 Z " fill="#FC6B1F" transform="translate(24,29)"/>
<path d="M0 0 C0.66 0 1.32 0 2 0 C2 1.65 2 3.3 2 5 C2.66 5.33 3.32 5.66 4 6 C3.34 6 2.68 6 2 6 C2 7.65 2 9.3 2 11 C1.67 11 1.34 11 1 11 C0.67 7.37 0.34 3.74 0 0 Z " fill="#7F564D" transform="translate(18,16)"/>
<path d="M0 0 C0.66 0.33 1.32 0.66 2 1 C1.67 3.31 1.34 5.62 1 8 C0.34 8 -0.32 8 -1 8 C-1.93065133 5.39417629 -2.14917407 4.35801776 -1.0625 1.75 C-0.711875 1.1725 -0.36125 0.595 0 0 Z " fill="#6F5250" transform="translate(15,17)"/>
</svg>
